<svg width="1426" height="184" viewBox="0 0 1426 184" fill="none" xmlns="http://www.w3.org/2000/svg">
<path d="M34.3008 97.5352H29.1328C20.6953 97.5352 13.6992 97.7461 8.14453 98.168C7.30078 98.2383 6.52734 98.2734 5.82422 98.2734C4.48828 98.2734 3.32813 97.8867 2.34375 97.1133C1.42969 96.2695 0.972656 95.2852 0.972656 94.1602C0.972656 92.9648 1.71094 90.2227 3.1875 85.9336C4.73438 81.5742 6.03516 78.4453 7.08984 76.5469C8.91797 73.3125 11.2383 71.6953 14.0508 71.6953C14.8945 71.6953 15.9492 71.7656 17.2148 71.9062C24.668 72.6094 29.4844 72.9258 31.6641 72.8555H34.3008H34.5117C38.3086 72.8555 40.1719 70.957 40.1016 67.1602V60.3047C40.0312 55.9453 39.6094 51.0938 38.8359 45.75C38.6953 45.0469 38.625 44.3086 38.625 43.5352C38.625 41.0039 40.8047 38.7539 45.1641 36.7852C47.8359 35.6602 50.9297 34.6055 54.4453 33.6211C57.9609 32.5664 60.457 32.0391 61.9336 32.0391C64.8164 32.0391 66.2578 33.4102 66.2578 36.1523C66.2578 36.5039 66.1523 37.3828 65.9414 38.7891C65.8008 39.8438 65.7305 43.1836 65.7305 48.8086V67.1602C65.8008 70.8867 67.7344 72.7852 71.5312 72.8555H87.8789C93.4336 72.8555 96.7383 72.7852 97.793 72.6445C99.2695 72.4336 100.184 72.3281 100.535 72.3281C103.277 72.3281 104.648 73.7344 104.648 76.5469C104.648 78.0938 104.051 80.8359 102.855 84.7734C101.66 88.6406 100.43 91.7344 99.1641 94.0547C97.4766 97.3594 95.4727 99.0117 93.1523 99.0117L76.3828 97.5352H71.5312C67.3828 97.2539 65.4492 99.1875 65.7305 103.336V105.023C65.7305 109.734 66.082 115.5 66.7852 122.32C66.9258 123.586 66.9961 124.641 66.9961 125.484C66.9961 128.578 64.8516 131.145 60.5625 133.184C58.2422 134.238 55.0781 135.398 51.0703 136.664C47.1328 137.93 44.6719 138.562 43.6875 138.562C42.4219 138.562 41.3672 138.105 40.5234 137.191C39.75 136.207 39.3633 135.012 39.3633 133.605C39.3633 132.973 39.3984 132.234 39.4688 131.391C39.8906 125.836 40.1016 118.84 40.1016 110.402V103.336C40.3125 99.2578 38.3789 97.3242 34.3008 97.5352ZM135.34 126.434C136.324 126.434 138.645 126.68 142.301 127.172C143.988 127.453 145.324 127.594 146.309 127.594C152.285 127.594 155.73 122.883 156.645 113.461C157.137 108.117 157.383 92.9297 157.383 67.8984C157.383 64.1016 156.609 61.4648 155.062 59.9883C153.516 58.5117 150.703 57.7734 146.625 57.7734C145.641 57.7734 144.234 57.8789 142.406 58.0898C141 58.2305 139.77 58.3008 138.715 58.3008C136.324 58.3008 134.391 57.668 132.914 56.4023C131.438 55.0664 130.699 53.3438 130.699 51.2344C130.699 48.9844 131.824 46.7695 134.074 44.5898C136.324 42.3398 139.453 40.3711 143.461 38.6836C163.359 30.2461 184.523 26.0273 206.953 26.0273C213.07 26.0273 217.5 26.7656 220.242 28.2422C223.055 29.6484 224.461 31.9336 224.461 35.0977C224.461 36.9258 224.004 38.3672 223.09 39.4219C222.176 40.4062 220.348 41.4961 217.605 42.6914C213.246 44.5898 210.75 46.9102 210.117 49.6523C209.484 52.3945 208.992 63.082 208.641 81.7148C209.203 100.559 209.52 110.648 209.59 111.984C209.66 113.32 209.941 115.184 210.434 117.574C211.277 121.301 212.859 123.867 215.18 125.273C217.5 126.68 221.578 127.523 227.414 127.805C234.023 128.086 237.328 130.793 237.328 135.926C237.328 141.27 232.652 144.785 223.301 146.473C210.293 148.793 196.934 149.953 183.223 149.953C174.223 149.953 165.715 149.426 157.699 148.371C147.645 146.965 139.84 145.242 134.285 143.203C128.871 141.234 126.164 138.281 126.164 134.344C126.164 132.234 127.043 130.406 128.801 128.859C130.559 127.312 132.738 126.504 135.34 126.434ZM279.938 27.5039H354.926C357.738 27.5039 359.637 28.1016 360.621 29.2969C361.605 30.4922 362.098 32.8125 362.098 36.2578C362.098 41.0391 361.254 45.75 359.566 50.3906C357.879 54.9609 355.664 58.582 352.922 61.2539C350.742 63.3633 347.93 64.418 344.484 64.418H296.812C291.469 64.418 288.797 66.5273 288.797 70.7461C288.797 72.5039 289.395 73.7344 290.59 74.4375C291.855 75.1406 294.562 75.668 298.711 76.0195C314.109 77.5664 327.434 80.9766 338.684 86.25C346.77 89.9766 353.238 95.4609 358.09 102.703C361.605 107.906 363.363 113.531 363.363 119.578C363.363 129.422 359.145 138.738 350.707 147.527C344.027 154.488 335.273 159.867 324.445 163.664C313.688 167.461 301.805 169.359 288.797 169.359C278.461 169.359 269.074 168.023 260.637 165.352C252.832 162.961 248.93 158.918 248.93 153.223C248.93 149.918 249.492 147.07 250.617 144.68C251.742 142.289 253.078 141.094 254.625 141.094C255.469 141.094 256.523 141.305 257.789 141.727C260.602 142.57 264.047 143.344 268.125 144.047C272.273 144.75 275.578 145.102 278.039 145.102C284.016 145.102 288.832 143.836 292.488 141.305C296.145 138.703 297.973 135.293 297.973 131.074C297.973 125.871 295.09 121.512 289.324 117.996C283.77 114.621 276.703 112.23 268.125 110.824C260.883 109.629 256.523 108.891 255.047 108.609C253.641 108.258 252.305 107.66 251.039 106.816C248.578 105.27 247.348 103.09 247.348 100.277C247.348 96.4805 248.965 89.0273 252.199 77.918C255.434 66.8086 259.125 56.1211 263.273 45.8555C266.578 37.4883 269.109 32.3555 270.867 30.457C272.625 28.4883 275.648 27.5039 279.938 27.5039ZM492.141 0.0820312C499.383 0.0820312 508.875 1.875 520.617 5.46094C522.023 5.88281 523.148 6.09375 523.992 6.09375C524.695 6.09375 526.805 5.46094 530.32 4.19531C531.445 3.77344 532.641 3.5625 533.906 3.5625C538.617 3.5625 543.574 7.28906 548.777 14.7422C554.051 22.1953 556.688 29.2969 556.688 36.0469C556.688 39.9844 555.492 43.3242 553.102 46.0664C550.781 48.7383 547.934 50.0742 544.559 50.0742C541.746 50.0742 539.461 49.5117 537.703 48.3867C535.945 47.2617 532.078 43.9219 526.102 38.3672C517.664 30.4922 509.367 26.5547 501.211 26.5547C497.273 26.5547 494.109 27.5039 491.719 29.4023C489.398 31.3008 488.238 33.7969 488.238 36.8906C488.238 43.0078 493.617 47.6133 504.375 50.707C518.93 54.9961 528.246 58.125 532.324 60.0938C550.254 68.8125 559.219 81.6445 559.219 98.5898C559.219 113.566 553.102 125.801 540.867 135.293C528.352 144.996 512.004 149.848 491.824 149.848C482.824 149.848 473.332 148.793 463.348 146.684C453.363 144.504 446.156 141.973 441.727 139.09C438.352 136.84 435.293 131.953 432.551 124.43C429.879 116.836 428.543 109.453 428.543 102.281C428.543 98.8359 429.246 96.2344 430.652 94.4766C432.41 92.2266 434.625 91.1016 437.297 91.1016C439.969 91.1016 442.535 92.4727 444.996 95.2148C446.473 96.7617 449.953 101.719 455.438 110.086C458.039 114.023 462.152 117.293 467.777 119.895C473.473 122.496 479.344 123.797 485.391 123.797C490.594 123.797 494.812 122.848 498.047 120.949C501.281 118.98 502.898 116.484 502.898 113.461C502.898 110.648 501.633 108.223 499.102 106.184C496.57 104.145 492.457 102.246 486.762 100.488C476.707 97.3242 469.043 94.4414 463.77 91.8398C458.496 89.168 453.574 85.8281 449.004 81.8203C437.895 71.9766 432.34 60.7969 432.34 48.2812C432.34 42.0938 433.781 36.082 436.664 30.2461C439.547 24.3398 443.625 19.2422 448.898 14.9531C460.711 5.03906 475.125 0.0820312 492.141 0.0820312ZM628.723 8.20312L627.773 41.2148C627.703 44.5195 627.668 49.3711 627.668 55.7695C627.668 62.8711 627.773 67.0547 627.984 68.3203C628.477 71.2031 629.953 72.6445 632.414 72.6445C634.523 72.6445 637.758 71.3086 642.117 68.6367C646.477 65.8945 648.656 63.8555 648.656 62.5195C648.656 61.7461 647.883 60.3398 646.336 58.3008C645.211 56.8242 644.648 55.418 644.648 54.082C644.648 46.4883 654 42.6914 672.703 42.6914C682.406 42.6914 690.07 43.6758 695.695 45.6445C697.945 46.418 699.809 47.7539 701.285 49.6523C702.762 51.5508 703.5 53.5898 703.5 55.7695C703.5 58.9336 701.988 61.1484 698.965 62.4141C698.332 62.6953 696.293 63.1523 692.848 63.7852C689.754 64.3477 685.746 66.2812 680.824 69.5859C675.902 72.8203 673.441 75.1758 673.441 76.6523C673.441 77.6367 676.395 82.2773 682.301 90.5742C688.277 98.8008 693.832 105.973 698.965 112.09C702.27 116.098 704.836 118.91 706.664 120.527C708.562 122.145 711.164 123.867 714.469 125.695C719.531 128.438 722.062 131.566 722.062 135.082C722.062 138.809 720.445 141.727 717.211 143.836C714.047 145.945 709.688 147 704.133 147H669.961C665.672 146.93 662.332 145.348 659.941 142.254L642.434 119.789C637.793 113.883 634.945 110.367 633.891 109.242C632.906 108.117 632.062 107.555 631.359 107.555C630.516 107.555 629.953 108.188 629.672 109.453C629.391 110.719 629.25 113.109 629.25 116.625C629.25 119.789 629.602 122.109 630.305 123.586C631.008 124.992 632.625 126.715 635.156 128.754C636.984 130.23 637.898 132.41 637.898 135.293C637.898 140.215 635.297 143.766 630.094 145.945C624.891 148.125 616.312 149.215 604.359 149.215C590.297 149.215 581.156 148.617 576.938 147.422C574.547 146.719 572.508 145.312 570.82 143.203C569.133 141.023 568.289 138.738 568.289 136.348C568.289 133.676 569.766 131.355 572.719 129.387C575.25 127.77 576.867 126.539 577.57 125.695C578.273 124.852 578.836 123.516 579.258 121.688C580.875 111.844 581.648 96.6562 581.578 76.125V53.0273C581.578 45.1523 581.156 40.125 580.312 37.9453C579.539 35.7656 577.57 34.4648 574.406 34.043C568.641 33.2695 565.758 30.8789 565.758 26.8711C565.758 24.1992 567.023 21.8086 569.555 19.6992C572.086 17.5195 576.234 15.375 582 13.2656C600.422 6.44531 614.062 3.03516 622.922 3.03516C626.93 3.03516 628.863 4.75781 628.723 8.20312ZM826.793 93.8438L812.871 132.129C809.426 141.621 805.945 149.355 802.43 155.332C798.984 161.379 795.047 166.512 790.617 170.73C781.477 179.449 770.473 183.809 757.605 183.809C747.199 183.809 738.762 181.066 732.293 175.582C727.301 171.363 724.805 165.984 724.805 159.445C724.805 154.031 726.527 149.496 729.973 145.84C733.488 142.113 737.777 140.25 742.84 140.25C747.902 140.25 751.98 141.938 755.074 145.312C756.551 146.859 757.535 148.23 758.027 149.426C758.52 150.621 759.258 153.258 760.242 157.336C761.016 160.43 762.773 161.977 765.516 161.977C767.695 161.977 769.523 161.027 771 159.129C772.477 157.23 773.215 154.875 773.215 152.062C773.215 148.758 771.387 143.238 767.73 135.504L742.312 81.3984C739.641 75.7734 737.637 72.2578 736.301 70.8516C734.965 69.4453 732.012 67.7227 727.441 65.6836C726.035 65.1211 724.805 64.0312 723.75 62.4141C722.766 60.7266 722.273 59.1094 722.273 57.5625C722.273 51.3047 728.496 47.0508 740.941 44.8008C749.238 43.3242 758.695 42.5859 769.312 42.5859C776.766 42.5859 782.637 43.3594 786.926 44.9062C792.691 46.9453 795.574 50.4258 795.574 55.3477C795.574 57.1055 794.766 59.1797 793.148 61.5703C791.602 63.8203 790.828 65.8242 790.828 67.582C790.828 69.2695 791.18 71.0273 791.883 72.8555C792.656 74.6836 794.238 77.7773 796.629 82.1367C799.301 87.0586 801.656 89.5195 803.695 89.5195C805.875 89.5195 808.125 87.375 810.445 83.0859C812.766 78.7266 813.926 74.543 813.926 70.5352C813.926 67.3008 813.047 64.6641 811.289 62.625C808.617 59.4609 807.281 56.7539 807.281 54.5039C807.281 50.918 809.672 48.0703 814.453 45.9609C819.234 43.7812 825.633 42.6914 833.648 42.6914C848.555 42.6914 856.008 46.2773 856.008 53.4492C856.008 56.0508 855.234 58.1602 853.688 59.7773C852.211 61.3242 849.469 62.8008 845.461 64.207C842.086 65.4727 839.414 67.582 837.445 70.5352C834.352 75.2461 830.801 83.0156 826.793 93.8438ZM981.305 128.754L970.441 111.352C967.91 107.414 966.258 105.059 965.484 104.285C964.781 103.512 963.832 103.125 962.637 103.125C960.105 103.125 957.504 105.445 954.832 110.086L937.219 140.461C933.844 146.297 930.047 149.215 925.828 149.215C923.227 149.215 920.836 148.336 918.656 146.578C916.477 144.75 914.121 141.691 911.59 137.402L879.949 84.7734C874.676 76.2656 870.562 70.7109 867.609 68.1094C866.203 66.9844 863.637 65.8945 859.91 64.8398C858.363 64.3477 857.062 63.3984 856.008 61.9922C855.023 60.5156 854.531 58.8984 854.531 57.1406C854.531 51.7266 858.715 47.9297 867.082 45.75C875.52 43.6406 884.73 42.5859 894.715 42.5859C917.145 42.5859 928.359 46.7695 928.359 55.1367C928.359 56.6836 927.27 59.0391 925.09 62.2031C924.668 62.8359 924.457 63.5039 924.457 64.207C924.457 65.7539 926.109 69.5859 929.414 75.7031C933.07 82.6641 936.234 86.1445 938.906 86.1445C940.453 86.1445 942.422 84.3867 944.812 80.8711C947.203 77.3555 948.398 74.5078 948.398 72.3281C948.398 70.1484 947.871 68.4258 946.816 67.1602C945.762 65.8242 943.266 63.75 939.328 60.9375C936.938 59.25 935.742 57.2461 935.742 54.9258C935.742 49.4414 941.367 45.8555 952.617 44.168C959.438 43.1133 967.453 42.5859 976.664 42.5859C987.281 42.5859 994.945 43.5 999.656 45.3281C1004.37 47.0859 1006.72 49.9688 1006.72 53.9766C1006.72 55.5938 1006.44 56.8945 1005.88 57.8789C1005.32 58.8633 1003.8 60.6211 1001.34 63.1523C1000.57 63.9961 1000.18 65.0859 1000.18 66.4219C1000.18 68.3203 1001.8 72.3281 1005.04 78.4453C1007.85 83.7891 1010.41 86.4609 1012.73 86.4609C1015.27 86.4609 1018.46 83.0508 1022.33 76.2305C1025.14 71.0977 1026.55 67.6875 1026.55 66C1026.55 64.6641 1025.43 62.5898 1023.18 59.7773C1021.56 57.8086 1020.75 55.6641 1020.75 53.3438C1020.75 49.6875 1022.4 47.1562 1025.71 45.75C1030.35 43.7109 1037.1 42.6914 1045.96 42.6914C1051.93 42.6914 1057.24 43.1484 1061.88 44.0625C1064.55 44.625 1066.73 45.7852 1068.42 47.543C1070.11 49.2305 1070.95 51.1992 1070.95 53.4492C1070.95 55.6992 1069.97 57.5977 1068 59.1445C1067.65 59.4961 1065.19 60.4805 1060.62 62.0977C1058.02 63.082 1055.87 64.4883 1054.18 66.3164C1052.5 68.1445 1050.46 71.4141 1048.07 76.125L1021.7 127.172C1013.96 142.078 1007.14 149.531 1001.24 149.531C998.707 149.531 995.895 147.949 992.801 144.785C989.777 141.551 985.945 136.207 981.305 128.754ZM1129.91 41.8477C1142.14 41.8477 1152.52 44.9414 1161.02 51.1289C1165.52 54.4336 1168.65 58.2305 1170.41 62.5195C1172.24 66.7383 1173.15 72.5742 1173.15 80.0273L1172.94 95.7422C1172.94 106.641 1173.71 113.707 1175.26 116.941C1176.04 118.488 1176.77 119.473 1177.48 119.895C1178.18 120.316 1179.66 120.703 1181.91 121.055C1184.16 121.406 1185.28 122.883 1185.28 125.484C1185.28 128.859 1183.91 132.375 1181.17 136.031C1178.5 139.688 1175.02 142.746 1170.73 145.207C1165.45 148.301 1159.93 149.848 1154.17 149.848C1146.79 149.848 1140.95 147.316 1136.66 142.254C1135.18 140.426 1133.81 139.512 1132.55 139.512C1131.14 139.512 1129.28 140.391 1126.96 142.148C1119.93 147.281 1111.95 149.848 1103.02 149.848C1093.8 149.848 1086.35 147.879 1080.66 143.941C1076.93 141.34 1073.98 137.965 1071.8 133.816C1069.62 129.598 1068.53 125.203 1068.53 120.633C1068.53 113.32 1071.48 106.852 1077.39 101.227C1086.6 92.3672 1100.38 87.9023 1118.73 87.832C1122.81 87.832 1125.38 87.4453 1126.43 86.6719C1127.48 85.8281 1128.01 83.9297 1128.01 80.9766C1128.01 73.5234 1127.24 68.1445 1125.69 64.8398C1124.14 61.4648 1121.61 59.7773 1118.1 59.7773C1115.99 59.7773 1114.09 60.4102 1112.4 61.6758C1110.79 62.9414 1108.75 65.2617 1106.29 68.6367C1100.03 77.5664 1093.49 82.0312 1086.67 82.0312C1083.22 82.0312 1080.41 81.0117 1078.23 78.9727C1076.05 76.9336 1074.96 74.2617 1074.96 70.957C1074.96 67.582 1076.3 64.207 1078.97 60.832C1081.71 57.457 1085.4 54.5039 1090.04 51.9727C1102.77 45.2227 1116.06 41.8477 1129.91 41.8477ZM1122.84 102.914C1119.75 102.914 1117.04 104.18 1114.72 106.711C1112.47 109.242 1111.35 112.266 1111.35 115.781C1111.35 119.156 1112.16 121.898 1113.77 124.008C1115.39 126.047 1117.54 127.066 1120.21 127.066C1125.83 127.066 1128.64 122.32 1128.64 112.828C1128.64 108.961 1128.22 106.359 1127.38 105.023C1126.61 103.688 1125.09 102.984 1122.84 102.914ZM1252.46 63.3633V97.2188C1252.46 112.195 1252.68 120.914 1253.1 123.375C1253.59 125.836 1255.35 127.734 1258.37 129.07C1260.97 130.195 1262.7 131.25 1263.54 132.234C1264.45 133.219 1264.91 134.625 1264.91 136.453C1264.91 138.773 1264.07 140.883 1262.38 142.781C1260.76 144.68 1258.58 146.016 1255.84 146.789C1250.78 148.336 1242.23 149.109 1230.21 149.109C1216.64 149.109 1207.11 148.09 1201.63 146.051C1199.1 145.137 1197.02 143.73 1195.41 141.832C1193.79 139.863 1192.98 137.824 1192.98 135.715C1192.98 134.027 1193.4 132.727 1194.25 131.812C1195.16 130.898 1197.09 129.809 1200.05 128.543C1202.79 127.348 1204.48 124.078 1205.11 118.734C1206.23 109.594 1206.8 96.5859 1206.8 79.7109C1206.8 62.5547 1206.3 51.5156 1205.32 46.5938C1204.34 41.6719 1201.88 38.0156 1197.94 35.625C1194.98 33.9375 1192.95 32.3555 1191.82 30.8789C1190.77 29.332 1190.24 27.4688 1190.24 25.2891C1190.24 21.8437 1191.89 18.8555 1195.2 16.3242C1198.5 13.7227 1203.77 11.332 1211.02 9.15234C1215.87 7.67578 1222.16 6.26953 1229.89 4.93359C1237.63 3.59766 1243.25 2.92969 1246.77 2.92969C1252.32 2.92969 1255.1 6.375 1255.1 13.2656C1255.1 15.5156 1254.75 20.6836 1254.05 28.7695C1253.13 41.3555 1252.61 52.8867 1252.46 63.3633ZM1332.2 8.20312L1331.25 41.2148C1331.18 44.5195 1331.14 49.3711 1331.14 55.7695C1331.14 62.8711 1331.25 67.0547 1331.46 68.3203C1331.95 71.2031 1333.43 72.6445 1335.89 72.6445C1338 72.6445 1341.23 71.3086 1345.59 68.6367C1349.95 65.8945 1352.13 63.8555 1352.13 62.5195C1352.13 61.7461 1351.36 60.3398 1349.81 58.3008C1348.69 56.8242 1348.12 55.418 1348.12 54.082C1348.12 46.4883 1357.48 42.6914 1376.18 42.6914C1385.88 42.6914 1393.55 43.6758 1399.17 45.6445C1401.42 46.418 1403.29 47.7539 1404.76 49.6523C1406.24 51.5508 1406.98 53.5898 1406.98 55.7695C1406.98 58.9336 1405.46 61.1484 1402.44 62.4141C1401.81 62.6953 1399.77 63.1523 1396.32 63.7852C1393.23 64.3477 1389.22 66.2812 1384.3 69.5859C1379.38 72.8203 1376.92 75.1758 1376.92 76.6523C1376.92 77.6367 1379.87 82.2773 1385.78 90.5742C1391.75 98.8008 1397.31 105.973 1402.44 112.09C1405.75 116.098 1408.31 118.91 1410.14 120.527C1412.04 122.145 1414.64 123.867 1417.95 125.695C1423.01 128.438 1425.54 131.566 1425.54 135.082C1425.54 138.809 1423.92 141.727 1420.69 143.836C1417.52 145.945 1413.16 147 1407.61 147H1373.44C1369.15 146.93 1365.81 145.348 1363.42 142.254L1345.91 119.789C1341.27 113.883 1338.42 110.367 1337.37 109.242C1336.38 108.117 1335.54 107.555 1334.84 107.555C1333.99 107.555 1333.43 108.188 1333.15 109.453C1332.87 110.719 1332.73 113.109 1332.73 116.625C1332.73 119.789 1333.08 122.109 1333.78 123.586C1334.48 124.992 1336.1 126.715 1338.63 128.754C1340.46 130.23 1341.38 132.41 1341.38 135.293C1341.38 140.215 1338.77 143.766 1333.57 145.945C1328.37 148.125 1319.79 149.215 1307.84 149.215C1293.77 149.215 1284.63 148.617 1280.41 147.422C1278.02 146.719 1275.98 145.312 1274.3 143.203C1272.61 141.023 1271.77 138.738 1271.77 136.348C1271.77 133.676 1273.24 131.355 1276.2 129.387C1278.73 127.77 1280.34 126.539 1281.05 125.695C1281.75 124.852 1282.31 123.516 1282.73 121.688C1284.35 111.844 1285.12 96.6562 1285.05 76.125V53.0273C1285.05 45.1523 1284.63 40.125 1283.79 37.9453C1283.02 35.7656 1281.05 34.4648 1277.88 34.043C1272.12 33.2695 1269.23 30.8789 1269.23 26.8711C1269.23 24.1992 1270.5 21.8086 1273.03 19.6992C1275.56 17.5195 1279.71 15.375 1285.48 13.2656C1303.9 6.44531 1317.54 3.03516 1326.4 3.03516C1330.41 3.03516 1332.34 4.75781 1332.2 8.20312Z" fill="black"/>
</svg>
